<?xml version="1.0" encoding="UTF-8"?>
<svg width="220px" height="220px" viewBox="0 0 220 220" version="1.1" xmlns="http://www.w3.org/2000/svg">
  <!-- Generator: Sketch 52.3 (67297) - http://www.bohemiancoding.com/sketch -->
  <title>rehooktive-logo</title>
  <desc>Created with Sketch.</desc>
  <defs>
    <linearGradient x1="0%" y1="63.2115768%" x2="100%" y2="14.5900256%" id="linearGradient-1">
      <stop stop-color="#EC0E90" offset="0%"></stop>
      <stop stop-color="#3C3791" offset="100%"></stop>
    </linearGradient>
    <linearGradient x1="0%" y1="61.0280797%" x2="100%" y2="37.1037138%" id="linearGradient-2">
      <stop stop-color="#EC0E90" offset="0%"></stop>
      <stop stop-color="#3C3791" offset="100%"></stop>
    </linearGradient>
  </defs>
  <g id="Page-1" stroke="none" stroke-width="1" fill="none" fill-rule="evenodd">
    <path
      d="M46.6170039,158.760146 C49.2548828,160.202148 62.4067972,139.219666 67.3208597,123.967713 C72.2349222,108.71576 76.1367187,84.4384766 72.9755675,84.4384766 C69.8144162,84.4384766 55.7331387,97.1748097 46.6170039,104.250211 C27.5925959,119.01538 9.21877325,132.242082 7.08305344,158.760146 C4.00891061,196.927395 40.4914925,226.814098 77.3236747,214.937668 C84.4525218,212.638479 91.063814,208.39697 96.6271443,203.424838 C105.086722,195.864786 109.636797,185.664712 114.575548,175.690397 C119.267791,166.213434 124.319065,156.84235 129.171371,147.434014 C139.941597,126.551805 154.533309,98.4818174 172.94651,63.2240518 L152.740234,53 C142.288266,73.095558 133.55311,89.7349309 126.534767,102.918119 C118.362623,118.266934 110.011062,133.669067 102.297516,149.247063 C96.726523,160.496697 90.8160353,172.274643 82.9351956,182.080638 C80.2709572,185.394577 76.7529389,188.074963 72.9755675,190.014419 C43.6480256,205.075058 18.4570312,165.606445 43.3408203,139.987094 C45.6715901,146.69471 43.979125,157.318144 46.6170039,158.760146 Z"
      id="Combined-Shape" fill="url(#linearGradient-1)" fill-rule="nonzero"></path>
    <path
      d="M169.401504,76 C150.34768,76 134.901504,60.5538239 134.901504,41.5 C134.901504,22.4461761 150.34768,7 169.401504,7 C188.455328,7 203.901504,22.4461761 203.901504,41.5 C203.901504,60.5538239 188.455328,76 169.401504,76 Z M169.901504,58 C178.73806,58 185.901504,50.836556 185.901504,42 C185.901504,33.163444 178.73806,26 169.901504,26 C161.064948,26 153.901504,33.163444 153.901504,42 C153.901504,50.836556 161.064948,58 169.901504,58 Z"
      id="Combined-Shape" fill="url(#linearGradient-2)" fill-rule="nonzero"></path>
    <path
      d="M152.048461,67.9504108 C145.238018,61.4005108 141,52.1951765 141,42 C141,22.117749 157.117749,6 177,6 C196.882251,6 213,22.117749 213,42 C213,61.882251 196.882251,78 177,78 C175.939214,78 174.889143,77.9541194 173.851665,77.8642343 C159.464897,106.072104 147.318595,129.83015 137.412759,149.138371 C132.328648,159.048497 131.335417,161.2402 125.803487,170.821298 C120.271557,180.402395 103.909886,205.425196 81.0486243,211.752899 C41.9686153,222.569743 4.0077844,192.666697 7.183808,152.440615 C9.39030551,124.492102 32.6731658,108.576092 52.6373046,93.0393616 C62.2037402,85.5942315 67.5741306,81.2700886 80.2987789,72.1935169 C80.3487831,83.1068402 79.5546499,97.7820713 74.4138257,113.851604 C69.2730015,129.921137 57.5661948,146.985721 52.7134294,150.495825 C50.1401562,143.493365 51.7034415,137.776872 49.2456472,130.703422 C20.0597339,160.8568 49.2456472,197.287953 74.1981008,186.538338 C74.9443075,186.21687 75.693932,185.863188 76.4462189,185.476355 C93.4542387,176.730668 105.677164,156.759672 111.350344,145.198121 C119.403557,128.786228 122.727474,123.767822 131.290713,107.600741 C137.091079,96.6486721 144.010329,83.4318953 152.048461,67.9504108 Z M177.521739,59.2173913 C186.742493,59.2173913 194.217391,51.7424932 194.217391,42.5217391 C194.217391,33.300985 186.742493,25.826087 177.521739,25.826087 C168.300985,25.826087 160.826087,33.300985 160.826087,42.5217391 C160.826087,51.7424932 168.300985,59.2173913 177.521739,59.2173913 Z"
      id="Combined-Shape" stroke="#1E1422" stroke-width="6" stroke-linecap="round" stroke-linejoin="round"
      fill-rule="nonzero"
      transform="translate(109.998766, 109.992528) rotate(-360.000000) translate(-109.998766, -109.992528) "></path>
  </g>
</svg>
